<svg width="1532" height="187" viewBox="0 0 1532 187" fill="none" xmlns="http://www.w3.org/2000/svg">
<path opacity="0.1" d="M176.363 187H84.6338L21.2852 37.6475V187H10.8701V21.3008C10.8701 14.861 7.8942 7.43094 3.43066 2.97266L0.455078 0H97.165L176.363 187ZM263.804 0C258.348 9.90732 247.934 31.208 247.934 63.4062V187H237.519V93.624C237.519 63.4068 212.225 21.3007 174.037 0H263.804ZM388.256 2.97266C384.288 7.43099 380.817 14.8613 380.817 21.3008V187H296.506V21.3008C296.506 14.8611 293.53 7.43096 289.066 2.97266L286.091 0H391.728L388.256 2.97266ZM583.164 2.97266C579.197 7.43096 576.221 14.8612 576.221 21.3008V187H491.413V21.3008C491.413 14.8613 488.438 7.43099 484.471 2.97266L480.999 0H586.636L583.164 2.97266ZM773.721 0C835.714 0 872.91 24.7683 872.91 70.3418C872.91 130.718 810.855 156.061 767.243 187H748.766C768.755 164.668 788.599 142.263 788.599 93.624C788.599 46.0691 768.761 10.4023 715.694 10.4023H709.247V187H624.937V21.3008C624.937 14.8612 621.96 7.43098 617.497 2.97266L614.521 0H773.721ZM1150.17 89.6611L1131.33 65.8838C1105.04 32.6944 1058.92 10.4023 1015.77 10.4023H997.421V178.826C1017.26 178.826 1041.06 173.377 1058.42 164.461L1081.73 152.572V187H913.109V21.3008C913.109 14.8611 910.133 7.43095 905.67 2.97266L902.694 0H1139.76L1150.17 89.6611ZM1265.91 2.97266C1261.94 7.43095 1258.47 14.8611 1258.47 21.3008V187H1174.16V21.3008C1174.16 14.861 1171.18 7.43094 1166.72 2.97266L1163.75 0H1269.38L1265.91 2.97266ZM1531.22 187H1444.47L1400.09 37.6475C1378.29 109.259 1367.38 128.882 1373.35 187H1342.13L1405.55 0H1476.47L1531.22 187Z" fill="white"/>
</svg>
