<svg width="36" height="13" viewBox="0 0 36 13" fill="none" xmlns="http://www.w3.org/2000/svg">
                      <g clip-path="url(#clip0_37_8925)">
                        <mask id="mask0_37_8925" style="mask-type: luminance" maskUnits="userSpaceOnUse" x="0" y="0" width="36" height="13">
                          <path d="M36 0.60022H0V12.6002H36V0.60022Z" fill="white"></path>
                        </mask>
                        <g mask="url(#mask0_37_8925)">
                          <path d="M31.6 4.9002L32.2 8.1002H29.8L31 5.0002L31.2 4.4002L31.3 3.9002C31.3 4.0002 31.6 4.9002 31.6 4.9002ZM8.89999 12.0002L13.3 1.1002H10.3L7.59999 8.6002L7.29999 7.0002L6.29999 2.0002C6.19999 1.4002 5.69999 1.0002 4.89999 1.0002H0.399988L0.299988 1.2002C1.49999 1.4002 2.39999 1.8002 3.29999 2.4002L5.89999 12.1002H8.99999L8.89999 12.0002ZM15.6 12.0002L17.4 1.1002H14.6L12.8 12.2002H15.6V12.0002ZM25.7 8.5002C25.7 7.3002 24.9 6.3002 23.3 5.4002C22.1 4.9002 21.5 4.5002 21.5 4.1002C21.5 3.5002 22.1 3.2002 23.3 3.2002C24 3.2002 24.7 3.2002 25.3 3.7002H25.7L26 1.2002C25.1 0.800195 24.3 0.700195 23.4 0.700195C22.5 0.700195 21.7 0.900195 21 1.2002C20.3 1.5002 19.7 1.9002 19.2 2.5002C18.8 3.1002 18.6 3.7002 18.6 4.4002C18.6 5.6002 19.4 6.6002 21.2 7.5002C22.1 8.0002 22.6 8.40019 22.6 8.80019C22.6 9.50019 22 10.0002 20.9 10.0002C20 10.0002 19 9.8002 18.2 9.4002L17.8 9.2002L17.3 11.6002C18.3 12.0002 19.4 12.3002 20.5 12.3002C21.8 12.4002 23 12.0002 24 11.4002C25.2 10.6002 25.7 9.6002 25.7 8.5002ZM35.7 12.0002L33.4 1.1002H31.2C30.5 1.1002 30 1.3002 29.8 2.0002L25.5 12.2002H28.5L29 10.6002H32.8L33.2 12.3002H35.8V12.0002H35.7Z" fill="url(#paint0_linear_37_8925)"></path>
                        </g>
                      </g>
                      <defs>
                        <linearGradient id="paint0_linear_37_8925" x1="1.58189" y1="6.5086" x2="35.2449" y2="6.5086" gradientUnits="userSpaceOnUse">
                          <stop stop-color="#2C3572"></stop>
                          <stop offset="1" stop-color="#3C62AB"></stop>
                        </linearGradient>
                        <clipPath id="clip0_37_8925">
                          <rect width="36" height="13" fill="white"></rect>
                        </clipPath>
                      </defs>
                    </svg>