<svg width="41" height="15" viewBox="0 0 41 15" fill="none" xmlns="http://www.w3.org/2000/svg">
                      <g clip-path="url(#clip0_37_8942)">
                        <mask id="mask0_37_8942" style="mask-type: luminance" maskUnits="userSpaceOnUse" x="0" y="0" width="41" height="15">
                          <path d="M40.5 0.60022H0.5V14.6002H40.5V0.60022Z" fill="white"></path>
                        </mask>
                        <g mask="url(#mask0_37_8942)">
                          <path d="M29.3 4.00017C30.2 4.00017 30.9 3.30017 30.9 2.40017C30.9 1.50017 30.2 0.800171 29.3 0.800171C28.4 0.800171 27.7 1.50017 27.7 2.40017C27.6 3.30017 28.3 4.00017 29.3 4.00017C29.3 4.10017 29.3 4.10017 29.3 4.00017ZM16.7 4.90017C16.6 5.10017 16.1 6.60017 14.8 8.20017V1.50017L11.4 2.20017V14.3002H14.8V10.6002C15.8 12.1002 16.3 14.3002 16.3 14.3002H20.4C20 12.6002 18.2 9.50017 18.2 9.50017C19.3 8.10017 20.1 6.60017 20.6 5.00017L16.7 4.90017ZM25.7 4.80017C22.6 4.90017 21.1 6.30017 21.1 9.00017V14.3002H24.5V10.0002C24.5 8.40017 24.7 7.70017 26.7 7.60017V4.90017C26.3 4.80017 25.7 4.80017 25.7 4.80017ZM5.6 6.30017C5.2 6.30017 4.2 6.20017 4.2 5.30017C4.2 4.20017 5.6 4.20017 6.1 4.20017C7 4.20017 8.2 4.50017 9.1 4.70017C9.4 4.80017 9.7 4.90017 10 5.00017V2.20017H9.9C8.9 1.80017 7.7 1.50017 5.5 1.50017C1.8 1.50017 0.5 3.70017 0.5 5.60017C0.5 6.70017 1 9.20017 5.3 9.50017C5.7 9.50017 6.6 9.60017 6.6 10.5002C6.6 11.2002 5.8 11.7002 4.5 11.7002C3 11.7002 1.6 11.3002 0.8 11.0002V14.0002C2.1 14.3002 3.5 14.5002 5.2 14.5002C8.9 14.5002 10.5 12.4002 10.5 10.4002C10.5 8.00017 8.7 6.50017 5.6 6.30017ZM27.6 14.3002H30.9V4.90017H27.6V14.3002ZM37.2 2.10017V14.3002H40.5V1.50017L37.2 2.10017ZM32.3 2.10017L35.6 1.50017V14.3002H32.3V2.10017Z" fill="#862565"></path>
                        </g>
                      </g>
                      <defs>
                        <clipPath id="clip0_37_8942">
                          <rect width="41" height="15" fill="white"></rect>
                        </clipPath>
                      </defs>
                    </svg>