<svg width="24" height="15" viewBox="0 0 24 15" fill="none" xmlns="http://www.w3.org/2000/svg">
                      <g clip-path="url(#clip0_37_8917)">
                        <mask id="mask0_37_8917" style="mask-type: luminance" maskUnits="userSpaceOnUse" x="0" y="0" width="24" height="16">
                          <path d="M24 0.200195H0V15.0002H24V0.200195Z" fill="white"></path>
                        </mask>
                        <g mask="url(#mask0_37_8917)">
                          <path d="M7.4 15.0002C11.4869 15.0002 14.8 11.6871 14.8 7.6002C14.8 3.51329 11.4869 0.200195 7.4 0.200195C3.31309 0.200195 0 3.51329 0 7.6002C0 11.6871 3.31309 15.0002 7.4 15.0002Z" fill="#DD3D31"></path>
                          <path d="M16.6 15.0002C20.6869 15.0002 24 11.6871 24 7.6002C24 3.51329 20.6869 0.200195 16.6 0.200195C12.5131 0.200195 9.20001 3.51329 9.20001 7.6002C9.20001 11.6871 12.5131 15.0002 16.6 15.0002Z" fill="#EEB046"></path>
                          <path fill-rule="evenodd" clip-rule="evenodd" d="M12 13.5002C15.2 11.0002 15.8 6.30017 13.3 3.10017C12.9 2.60017 12.5 2.20017 12 1.80017C8.79997 4.30017 8.19997 9.00017 10.7 12.2002C11.1 12.7002 11.5 13.1002 12 13.5002Z" fill="#EF7D2F"></path>
                        </g>
                      </g>
                      <defs>
                        <clipPath id="clip0_37_8917">
                          <rect width="24" height="15" fill="white"></rect>
                        </clipPath>
                      </defs>
                    </svg>